<?xml version="1.0" standalone="no"?>
<!DOCTYPE svg PUBLIC "-//W3C//DTD SVG 1.1//EN" "http://www.w3.org/Graphics/SVG/1.1/DTD/svg11.dtd">
<svg xmlns="http://www.w3.org/2000/svg" xmlns:xlink="http://www.w3.org/1999/xlink" width="87" zoomAndPan="magnify" viewBox="0 0 87 46.499999" height="46.5" preserveAspectRatio="xMidYMid meet" version="1.0"><defs><g/><clipPath id="id1"><path d="M 1.0625 2.59375 L 29.824219 2.59375 L 29.824219 31.351562 L 1.0625 31.351562 Z M 1.0625 2.59375 " clip-rule="nonzero"/></clipPath><clipPath id="id2"><path d="M 29.558594 2.59375 L 57.105469 2.59375 L 57.105469 31.351562 L 29.558594 31.351562 Z M 29.558594 2.59375 " clip-rule="nonzero"/></clipPath><clipPath id="id3"><path d="M 57.109375 2.59375 L 85.871094 2.59375 L 85.871094 31.351562 L 57.109375 31.351562 Z M 57.109375 2.59375 " clip-rule="nonzero"/></clipPath><clipPath id="id4"><path d="M 56.925781 2.777344 L 58.4375 2.777344 L 58.4375 31.234375 L 56.925781 31.234375 Z M 56.925781 2.777344 " clip-rule="nonzero"/></clipPath><clipPath id="id5"><path d="M 0.460938 34 L 8 34 L 8 41 L 0.460938 41 Z M 0.460938 34 " clip-rule="nonzero"/></clipPath><clipPath id="id6"><path d="M 79 34 L 86.535156 34 L 86.535156 41 L 79 41 Z M 79 34 " clip-rule="nonzero"/></clipPath></defs><g clip-path="url(#id1)"><path fill="#545454" d="M 1.0625 2.59375 L 29.824219 2.59375 L 29.824219 31.351562 L 1.0625 31.351562 L 1.0625 2.59375 " fill-opacity="1" fill-rule="nonzero"/></g><g clip-path="url(#id2)"><path fill="#545454" d="M 29.558594 16.972656 L 57.105469 31.351562 L 57.105469 2.59375 L 29.558594 16.972656 " fill-opacity="1" fill-rule="nonzero"/></g><g clip-path="url(#id3)"><path fill="#545454" d="M 57.113281 2.59375 L 85.871094 2.59375 L 85.871094 31.351562 L 57.113281 31.351562 L 57.113281 2.59375 " fill-opacity="1" fill-rule="nonzero"/></g><g clip-path="url(#id4)"><path fill="#545454" d="M 56.925781 2.777344 L 58.4375 2.777344 L 58.4375 31.234375 L 56.925781 31.234375 L 56.925781 2.777344 " fill-opacity="1" fill-rule="nonzero"/></g><g clip-path="url(#id5)"><g fill="#000000" fill-opacity="1"><g transform="translate(0.361405, 40.234808)"><g><path d="M 0.433594 0 L 2.171875 0 L 2.171875 -1.84375 L 3.167969 -2.628906 L 5.476562 0 L 7.632812 0 L 4.378906 -3.617188 L 7.589844 -6.160156 L 5.339844 -6.160156 L 2.1875 -3.660156 L 2.171875 -3.660156 L 2.171875 -6.160156 L 0.433594 -6.160156 Z M 0.433594 0 "/></g></g></g></g><g fill="#000000" fill-opacity="1"><g transform="translate(7.993236, 40.234808)"><g><path d="M 0.015625 0 L 1.824219 0 L 2.414062 -1.210938 L 5.875 -1.210938 L 6.464844 0 L 8.273438 0 L 5.183594 -6.160156 L 3.167969 -6.160156 Z M 2.804688 -2.257812 L 4.144531 -5.035156 L 4.160156 -5.035156 L 5.484375 -2.257812 Z M 2.804688 -2.257812 "/></g></g></g><g fill="#000000" fill-opacity="1"><g transform="translate(16.291341, 40.234808)"><g><path d="M 0.433594 0 L 2.085938 0 L 2.085938 -4.371094 L 2.101562 -4.371094 L 4.4375 0 L 6.003906 0 L 8.296875 -4.378906 L 8.316406 -4.378906 L 8.316406 0 L 9.96875 0 L 9.96875 -6.160156 L 7.640625 -6.160156 L 5.210938 -1.550781 L 5.191406 -1.550781 L 2.734375 -6.160156 L 0.433594 -6.160156 Z M 0.433594 0 "/></g></g></g><g fill="#000000" fill-opacity="1"><g transform="translate(26.69209, 40.234808)"><g><path d="M 0.433594 0 L 6.84375 0 L 6.84375 -1.132812 L 2.121094 -1.132812 L 2.121094 -2.65625 L 6.410156 -2.65625 L 6.410156 -3.652344 L 2.121094 -3.652344 L 2.121094 -5.027344 L 6.757812 -5.027344 L 6.757812 -6.160156 L 0.433594 -6.160156 Z M 0.433594 0 "/></g></g></g><g fill="#000000" fill-opacity="1"><g transform="translate(33.709568, 40.234808)"><g><path d="M 0.433594 0 L 2.085938 0 L 2.085938 -4.527344 L 2.09375 -4.527344 L 5.960938 0 L 8.082031 0 L 8.082031 -6.160156 L 6.421875 -6.160156 L 6.421875 -1.671875 L 6.410156 -1.671875 L 2.550781 -6.160156 L 0.433594 -6.160156 Z M 0.433594 0 "/></g></g></g><g fill="#000000" fill-opacity="1"><g transform="translate(42.223996, 40.234808)"><g/></g></g><g fill="#000000" fill-opacity="1"><g transform="translate(44.481711, 40.234808)"><g><path d="M 0.433594 0 L 1.152344 0 L 1.152344 -2.214844 L 4.628906 -2.214844 C 6.109375 -2.214844 6.941406 -2.933594 6.949219 -4.152344 C 6.949219 -5.382812 6.117188 -6.101562 4.628906 -6.101562 L 0.433594 -6.101562 Z M 1.152344 -2.847656 L 1.152344 -5.460938 L 4.535156 -5.460938 C 5.625 -5.460938 6.230469 -4.976562 6.230469 -4.152344 C 6.230469 -3.332031 5.625 -2.847656 4.535156 -2.847656 Z M 1.152344 -2.847656 "/></g></g></g><g fill="#000000" fill-opacity="1"><g transform="translate(51.559758, 40.234808)"><g><path d="M 4.492188 0.214844 C 6.949219 0.214844 8.644531 -1.125 8.644531 -3.046875 C 8.644531 -4.964844 6.949219 -6.316406 4.492188 -6.316406 C 2.042969 -6.316406 0.347656 -4.964844 0.347656 -3.046875 C 0.347656 -1.125 2.042969 0.214844 4.492188 0.214844 Z M 4.492188 -0.414062 C 2.476562 -0.414062 1.0625 -1.496094 1.0625 -3.046875 C 1.0625 -4.59375 2.476562 -5.675781 4.492188 -5.675781 C 6.507812 -5.675781 7.917969 -4.59375 7.917969 -3.046875 C 7.917969 -1.496094 6.507812 -0.414062 4.492188 -0.414062 Z M 4.492188 -0.414062 "/></g></g></g><g fill="#000000" fill-opacity="1"><g transform="translate(60.550093, 40.234808)"><g><path d="M 0.433594 0 L 5.140625 0 L 5.140625 -0.632812 L 1.152344 -0.632812 L 1.152344 -6.101562 L 0.433594 -6.101562 Z M 0.433594 0 "/></g></g></g><g fill="#000000" fill-opacity="1"><g transform="translate(65.73316, 40.234808)"><g><path d="M 3.894531 0.214844 C 5.632812 0.214844 6.828125 -0.535156 6.828125 -1.671875 C 6.828125 -2.597656 6.089844 -3.105469 4.386719 -3.367188 L 2.820312 -3.609375 C 1.792969 -3.753906 1.359375 -4.039062 1.359375 -4.542969 C 1.359375 -5.199219 2.171875 -5.675781 3.304688 -5.675781 C 4.429688 -5.675781 5.382812 -5.175781 5.761719 -4.480469 L 6.308594 -4.90625 C 5.859375 -5.738281 4.691406 -6.316406 3.304688 -6.316406 C 1.757812 -6.316406 0.632812 -5.617188 0.632812 -4.5 C 0.632812 -3.609375 1.246094 -3.160156 2.683594 -2.941406 L 4.28125 -2.683594 C 5.5625 -2.492188 6.109375 -2.144531 6.109375 -1.609375 C 6.109375 -0.933594 5.234375 -0.425781 3.929688 -0.425781 C 2.40625 -0.425781 1.089844 -1.125 0.769531 -2.128906 L 0.171875 -1.730469 C 0.640625 -0.589844 2.09375 0.214844 3.894531 0.214844 Z M 3.894531 0.214844 "/></g></g></g><g fill="#000000" fill-opacity="1"><g transform="translate(72.733331, 40.234808)"><g><path d="M 0.433594 0 L 1.152344 0 L 1.152344 -2.292969 L 2.257812 -3.089844 L 5.503906 0 L 6.5 0 L 2.792969 -3.476562 L 6.410156 -6.101562 L 5.320312 -6.101562 L 1.160156 -3.054688 L 1.152344 -3.054688 L 1.152344 -6.101562 L 0.433594 -6.101562 Z M 0.433594 0 "/></g></g></g><g clip-path="url(#id6)"><g fill="#000000" fill-opacity="1"><g transform="translate(79.23164, 40.234808)"><g><path d="M 0.0429688 0 L 0.8125 0 L 1.609375 -1.460938 L 5.796875 -1.460938 L 6.601562 0 L 7.363281 0 L 4.136719 -6.101562 L 3.289062 -6.101562 Z M 1.929688 -2.101562 L 3.703125 -5.46875 L 3.722656 -5.46875 L 5.484375 -2.101562 Z M 1.929688 -2.101562 "/></g></g></g></g></svg>